<?xml version="1.0" encoding="UTF-8"?>
<svg width="21px" height="26px" viewBox="0 0 21 26" version="1.1" xmlns="http://www.w3.org/2000/svg" xmlns:xlink="http://www.w3.org/1999/xlink">
    <!-- Generator: Sketch 52.2 (67145) - http://www.bohemiancoding.com/sketch -->
    <title>个人头像</title>
    <desc>Created with Sketch.</desc>
    <g id="main" stroke="none" stroke-width="1" fill="none" fill-rule="evenodd">
        <g id="我的" transform="translate(-306.000000, -588.000000)" fill="#2967AF" fill-rule="nonzero">
            <g id="tab" transform="translate(0.000000, 580.000000)">
                <g id="我的" transform="translate(303.000000, 8.000000)">
                    <g id="个人头像" transform="translate(3.000000, 0.000000)">
                        <path d="M17.7692307,20.9625 L16.3153846,19.5 L4.68461537,19.5 L3.23076922,20.9625 L3.23076922,22.75 L17.7692307,22.75 L17.7692307,20.9625 Z M21,19.5 L21,26 L0,26 L0,19.5 L0.161538474,19.5 L3.39230769,16.25 L17.6076923,16.25 L21,19.5 Z M17.7692307,7.31250001 C17.7692307,11.375 14.5384615,14.625 10.5,14.625 C6.46153843,14.625 3.23076922,11.375 3.23076922,7.31250001 C3.23076922,3.25000003 6.46153847,0 10.5,0 C14.5384615,0 17.7692307,3.24999999 17.7692307,7.31250001 Z M14.5384615,7.31250001 C14.5384615,5.03749998 12.7615385,3.24999999 10.5,3.24999999 C8.2384615,3.24999999 6.46153847,5.03749998 6.46153847,7.31250001 C6.46153847,9.58750003 8.23846153,11.375 10.5,11.375 C12.7615384,11.3749999 14.5384615,9.5875 14.5384615,7.31250001 Z" id="Shape"></path>
                    </g>
                </g>
            </g>
        </g>
    </g>
</svg>