<?xml version="1.0" encoding="UTF-8"?>
<svg width="19px" height="26px" viewBox="0 0 19 26" version="1.1" xmlns="http://www.w3.org/2000/svg" xmlns:xlink="http://www.w3.org/1999/xlink">
    <!-- Generator: Sketch 52.2 (67145) - http://www.bohemiancoding.com/sketch -->
    <title>灵感</title>
    <desc>Created with Sketch.</desc>
    <g id="main" stroke="none" stroke-width="1" fill="none" fill-rule="evenodd">
        <g id="主页2" transform="translate(-46.000000, -588.000000)" fill="#4A4A4A" fill-rule="nonzero">
            <g id="tab" transform="translate(0.000000, 580.000000)">
                <g id="消息" transform="translate(42.000000, 8.000000)">
                    <g id="灵感" transform="translate(4.000000, 0.000000)">
                        <path d="M7.91666665,10.1111111 L6.33333335,10.1111111 L6.33333335,7.22222221 L12.6666667,7.22222221 L12.6666667,10.1111111 L11.0833333,10.1111111 L11.0833333,14.4444445 L7.91666665,14.4444445 L7.91666665,10.1111111 Z M14.25,16.1777778 L14.25,21.6666667 L4.75,21.6666667 L4.75,16.1777778 C1.9,14.7333333 0,11.8444445 0,8.66666667 C0,3.9 4.275,0 9.5,0 C14.725,0 19,3.9 19,8.66666667 C19,11.8444445 17.1,14.7333333 14.25,16.1777778 Z M11.0833333,17.1888889 L11.0833333,14.3 C13.775,13.7222222 15.8333333,11.4111111 15.8333333,8.66666667 C15.8333333,5.48888888 12.9833333,2.88888888 9.5,2.88888888 C6.01666665,2.88888888 3.16666665,5.48888888 3.16666665,8.66666667 C3.16666665,11.4111111 5.225,13.5777778 7.91666665,14.3 L7.91666665,18.7777778 L11.0833333,18.7777778 L11.0833333,17.1888889 Z M12.6666667,23.1111111 L12.6666667,26 L6.33333335,26 L6.33333335,23.1111111 L12.6666667,23.1111111 Z" id="Shape"></path>
                    </g>
                </g>
            </g>
        </g>
    </g>
</svg>