<?xml version="1.0" encoding="UTF-8"?>
<svg width="25px" height="26px" viewBox="0 0 25 26" version="1.1" xmlns="http://www.w3.org/2000/svg" xmlns:xlink="http://www.w3.org/1999/xlink">
    <!-- Generator: Sketch 52.2 (67145) - http://www.bohemiancoding.com/sketch -->
    <title>搜索</title>
    <desc>Created with Sketch.</desc>
    <g id="main" stroke="none" stroke-width="1" fill="none" fill-rule="evenodd">
        <g id="任务日历" transform="translate(-155.000000, -444.000000)" fill="#2967AF" fill-rule="nonzero">
            <g id="搜索" transform="translate(155.000000, 444.000000)">
                <path d="M11.1525087,22.2801788 C4.95280674,22.2801788 0.0248385246,17.3522106 0.0248385618,11.1525087 C0.0248385991,4.95280674 4.95280678,0.0248385246 11.1525087,0.0248385618 C17.3522106,0.0248385991 22.2801788,4.95280678 22.2801788,11.1525087 C22.2801788,17.3522106 17.3522106,22.2801788 11.1525087,22.2801788 Z M11.1525087,19.1008445 C15.6035768,19.1008445 19.1008445,15.6035768 19.1008445,11.1525087 C19.1008446,6.70144061 15.6035768,3.20417288 11.1525087,3.20417288 C6.70144061,3.20417288 3.20417288,6.70144065 3.20417288,11.1525087 C3.20417288,15.6035767 6.70144065,19.1008445 11.1525087,19.1008445 Z M20.531545,19.1008445 L24.982613,23.5519126 L22.757079,25.7774466 L18.3060109,21.3263785 L20.531545,19.1008445 Z" id="Shape"></path>
            </g>
        </g>
    </g>
</svg>