<?xml version="1.0" encoding="UTF-8"?>
<svg width="26px" height="26px" viewBox="0 0 26 26" version="1.1" xmlns="http://www.w3.org/2000/svg" xmlns:xlink="http://www.w3.org/1999/xlink">
    <!-- Generator: Sketch 52.2 (67145) - http://www.bohemiancoding.com/sketch -->
    <title>快速工作流</title>
    <desc>Created with Sketch.</desc>
    <g id="main" stroke="none" stroke-width="1" fill="none" fill-rule="evenodd">
        <g id="主页1" transform="translate(-173.000000, -588.000000)" fill="#2967AF" fill-rule="nonzero">
            <g id="tab" transform="translate(0.000000, 580.000000)">
                <g id="任务流" transform="translate(172.000000, 8.000000)">
                    <g id="快速工作流" transform="translate(1.000000, 0.000000)">
                        <path d="M25.5125,16.7375 C25.1875,16.4125 24.8625,16.0875 24.5375,15.925 C23.8875,15.6 23.2375,15.4375 22.425,15.4375 C22.5875,14.625 22.75,13.8125 22.75,13 C22.75,12.1875 22.5875,11.375 22.425,10.5625 C23.075,10.725 23.8875,10.5625 24.5375,10.075 C24.8625,9.91249998 25.1875,9.5875 25.5125,9.26250001 C25.8375,10.4 26,11.7 26,13 C26,14.3 25.8375,15.6 25.5125,16.7375 Z M22.425,21.9375 C20.6375,23.725 18.525,25.025 15.925,25.675 C16.0875,25.35 16.25,24.8625 16.25,24.375 C16.25,23.5625 15.925,22.9125 15.6,22.425 C17.225,21.9375 18.6875,21.125 19.825,19.9875 C20.15,20.6375 20.6375,21.125 21.125,21.6125 C21.6125,21.775 22.1,21.9375 22.425,21.9375 Z M0.4875,9.26250001 C0.812499988,9.5875 1.13750001,9.91250002 1.4625,10.075 C2.11250001,10.4 2.76249999,10.5625 3.57499998,10.5625 C3.41249997,11.375 3.24999999,12.1875 3.24999999,13 C3.24999999,13.8125 3.4125,14.625 3.57499998,15.4375 C2.92499996,15.275 2.11249998,15.4375 1.4625,15.925 C1.13750001,16.0875 0.812499988,16.4125 0.4875,16.7375 C0.162500013,15.6 0,14.3 0,13 C0,11.7 0.162500013,10.4 0.4875,9.26250001 Z M3.57499998,4.06249998 C5.36249997,2.27499999 7.47499998,0.974999963 10.075,0.324999988 C9.91249998,0.812499988 9.75000001,1.13749998 9.75000001,1.62499998 C9.75000001,2.43749996 10.075,3.08749998 10.4,3.57499998 C8.77499997,4.06249998 7.31249997,4.87499997 6.17499999,6.01249998 C5.85000001,5.36249997 5.36250001,4.87499997 4.71249999,4.54999998 C4.3875,4.22499999 3.9,4.06249998 3.57499998,4.06249998 Z M3.57499998,21.9375 C4.06249998,21.9375 4.38749997,21.775 4.875,21.45 C5.52500002,21.125 6.01250002,20.475 6.17499999,19.825 C7.31250001,20.9625 8.77500001,21.775 10.4,22.2625 C10.075,22.9125 9.74999997,23.5625 9.75000001,24.375 C9.75000001,24.8625 9.91250002,25.1875 10.075,25.675 C7.47499998,25.025 5.19999999,23.725 3.57499998,21.9375 Z M22.425,4.06249998 C21.9375,4.06249998 21.6125,4.22499999 21.125,4.54999998 C20.475,4.87499997 19.9875,5.52499998 19.825,6.17499999 C18.6875,5.03749998 17.225,4.22499999 15.6,3.73749999 C15.925,3.08749998 16.25,2.4375 16.25,1.62499998 C16.25,1.13749998 16.0875,0.812499988 15.925,0.324999988 C18.525,0.975000001 20.8,2.27499999 22.425,4.06249998 Z M13,3.24999999 C12.025,3.24999999 11.375,2.59999998 11.375,1.62499998 C11.375,0.649999975 12.025,-3.80859374e-08 13,0 C13.975,3.80859374e-08 14.625,0.650000013 14.625,1.62499998 C14.625,2.59999994 13.975,3.24999999 13,3.24999999 Z M13,26 C12.025,26 11.375,25.35 11.375,24.375 C11.375,23.4000001 12.025,22.75 13,22.75 C13.975,22.75 14.625,23.4 14.625,24.375 C14.625,25.35 13.975,26 13,26 Z M21.45,8.125 C20.9625,7.31250001 21.2875,6.33750001 22.1,5.85000001 C22.75,5.52500002 23.8875,5.68749999 24.2125,6.49999998 C24.5375,7.31249997 24.375,8.28749997 23.5625,8.77500001 C22.9125,9.1 21.9375,8.93750002 21.45,8.125 Z M1.78749999,19.5 C1.29999999,18.6875 1.62499998,17.7125 2.4375,17.225 C3.24999999,16.7375 4.22499999,17.0625 4.71249999,17.875 C5.19999999,18.6875 4.875,19.6625 4.06249998,20.15 C3.24999995,20.6375 2.11249998,20.3125 1.78749999,19.5 Z M4.54999998,8.125 C4.06249998,8.93749998 3.08749998,9.1 2.27499999,8.77500001 C1.62499998,8.28750001 1.29999999,7.31250001 1.78749999,6.49999998 C2.11249998,5.68749999 3.24999999,5.52499998 3.9,5.85000001 C4.71249999,6.33750001 5.03750002,7.31250001 4.54999998,8.125 Z M24.2125,19.5 C23.725,20.3125 22.75,20.475 21.9375,20.15 C21.125,19.825 20.9625,18.6875 21.2875,17.875 C21.6125,17.0625 22.75,16.9 23.5625,17.225 C24.375,17.7125 24.7,18.6875 24.2125,19.5 Z M13.4875,11.2125 L19.175,11.2125 L12.1875,18.2 L12.1875,15.1125 L6.49999998,15.1125 L13.4875,8.125 L13.4875,11.2125 Z" id="Shape"></path>
                    </g>
                </g>
            </g>
        </g>
    </g>
</svg>