<?xml version="1.0" encoding="UTF-8"?>
<svg width="27px" height="25px" viewBox="0 0 27 25" version="1.1" xmlns="http://www.w3.org/2000/svg" xmlns:xlink="http://www.w3.org/1999/xlink">
    <!-- Generator: Sketch 52.2 (67145) - http://www.bohemiancoding.com/sketch -->
    <title>添加好友</title>
    <desc>Created with Sketch.</desc>
    <g id="main" stroke="none" stroke-width="1" fill="none" fill-rule="evenodd">
        <g id="任务流详情(负责人)" transform="translate(-68.000000, -596.000000)" fill="#666666" fill-rule="nonzero">
            <g id="menu" transform="translate(13.000000, 596.000000)">
                <g id="加新成员" transform="translate(55.000000, 0.000000)">
                    <g id="添加好友">
                        <path d="M20.7407407,10.9375 L20.7407407,7.8125 L23.7037037,7.8125 L23.7037037,10.9375 L26.6666667,10.9375 L26.6666667,14.0625 L23.7037037,14.0625 L23.7037037,17.1875 L20.7407407,17.1875 L20.7407407,14.0625 L17.7777778,14.0625 L17.7777778,10.9375 L20.7407407,10.9375 Z M16.2962963,20.15625 L14.962963,18.75 L4.29629628,18.75 L2.96296295,20.15625 L2.96296295,21.875 L16.2962963,21.875 L16.2962963,20.15625 Z M19.2592593,18.75 L19.2592593,25 L0,25 L0,18.75 L0.14814816,18.75 L3.11111111,15.625 L16.1481482,15.625 L19.2592593,18.75 Z M9.62962962,0 C12.4444444,0 14.8148148,2.49999998 14.8148148,5.46874999 L14.8148148,8.59374998 C14.8148148,11.5625 12.4444444,14.0625 9.62962962,14.0625 C6.81481479,14.0625001 4.44444444,11.5625 4.44444444,8.59374998 L4.44444444,5.46874999 C4.44444444,2.49999998 6.81481483,0 9.62962962,0 Z M9.62962962,3.12499999 C8.44444444,3.12499999 7.4074074,4.21875 7.4074074,5.46874999 L7.4074074,8.59374998 C7.4074074,9.84374997 8.44444444,10.9375 9.62962962,10.9375 C10.8148148,10.9375 11.8518518,9.84374997 11.8518518,8.59374998 L11.8518518,5.46874999 C11.8518518,4.21875 10.8148148,3.12499999 9.62962962,3.12499999 Z" id="Shape"></path>
                    </g>
                </g>
            </g>
        </g>
    </g>
</svg>