<?xml version="1.0" encoding="UTF-8"?>
<svg width="25px" height="25px" viewBox="0 0 25 25" version="1.1" xmlns="http://www.w3.org/2000/svg" xmlns:xlink="http://www.w3.org/1999/xlink">
    <!-- Generator: Sketch 52.2 (67145) - http://www.bohemiancoding.com/sketch -->
    <title>群组</title>
    <desc>Created with Sketch.</desc>
    <g id="main" stroke="none" stroke-width="1" fill="none" fill-rule="evenodd">
        <g id="任务流详情(负责人)" transform="translate(-123.000000, -596.000000)" fill="#666666" fill-rule="nonzero">
            <g id="群组" transform="translate(123.000000, 596.000000)">
                <path d="M17.1539961,21.3645224 L14.502924,18.7134503 L5.76998048,18.7134503 L3.11890837,21.3645224 L3.11890837,21.8323587 L17.1539961,21.8323587 L17.1539961,21.3645224 Z M20.2729045,19.9610136 L20.2729045,24.951267 L0,24.951267 L0,19.9610136 L4.36647171,15.5945419 L15.7504873,15.5945419 L20.2729045,19.9610136 Z M17.9337232,15.5945419 L20.5847953,15.5945419 L24.951267,19.9610136 L24.951267,24.951267 L21.8323587,24.951267 L21.8323587,19.4931774 L17.9337232,15.5945419 Z M13.2553606,13.8791423 C15.4385965,13.2553606 17.1539961,11.0721247 17.1539961,8.57699803 L17.1539961,5.45808966 C17.1539961,2.96296294 15.4385965,0.935672515 13.2553606,0.155945395 C13.7231969,-3.65495664e-08 14.3469785,-3.65495664e-08 14.8148148,1.42108547e-13 C17.7777778,1.36914521e-13 20.2729045,2.49512668 20.2729045,5.45808966 L20.2729045,8.57699803 C20.2729045,11.539961 17.7777777,14.0350877 14.8148148,14.0350877 C14.1910331,14.0350877 13.7231969,13.8791423 13.2553606,13.8791423 Z M10.1364522,3.11641551e-15 C13.0994152,0 15.5945419,2.49512668 15.5945419,5.45808966 L15.5945419,8.57699803 C15.5945419,11.539961 13.0994152,14.0350877 10.1364522,14.0350877 C7.17348929,14.0350878 4.67836257,11.539961 4.67836257,8.57699803 L4.67836257,5.45808966 C4.67836257,2.49512668 7.17348925,0 10.1364522,0 Z M10.1364522,3.11890837 C8.88888889,3.11890837 7.79727094,4.21052632 7.79727094,5.45808966 L7.79727094,8.57699803 C7.79727094,9.82456137 8.88888889,10.9161793 10.1364522,10.9161793 C11.3840156,10.9161793 12.4756335,9.82456137 12.4756335,8.57699803 L12.4756335,5.45808966 C12.4756335,4.21052632 11.3840156,3.11890837 10.1364522,3.11890837 Z" id="Shape"></path>
            </g>
        </g>
    </g>
</svg>