<?xml version="1.0" encoding="UTF-8"?>
<svg width="10px" height="10px" viewBox="0 0 10 10" version="1.1" xmlns="http://www.w3.org/2000/svg" xmlns:xlink="http://www.w3.org/1999/xlink">
    <!-- Generator: Sketch 52.2 (67145) - http://www.bohemiancoding.com/sketch -->
    <title>群组</title>
    <desc>Created with Sketch.</desc>
    <g id="main" stroke="none" stroke-width="1" fill="none" fill-rule="evenodd">
        <g id="任务流详情(负责人)" transform="translate(-158.000000, -141.000000)" fill="#4A4A4A" fill-rule="nonzero">
            <g id="content" transform="translate(0.000000, 108.000000)">
                <g id="item1" transform="translate(48.000000, 22.000000)">
                    <g id="left" transform="translate(9.000000, 7.000000)">
                        <g id="people-count" transform="translate(101.000000, 0.000000)">
                            <g id="群组" transform="translate(0.000000, 4.000000)">
                                <path d="M6.875,8.5625 L5.81250001,7.50000001 L2.31249999,7.50000001 L1.25,8.5625 L1.25,8.75 L6.875,8.75 L6.875,8.5625 Z M8.125,8 L8.125,10 L0,10 L0,8 L1.74999999,6.25 L6.3125,6.25 L8.125,8 Z M7.1875,6.25 L8.25000001,6.25 L10,8 L10,10 L8.75,10 L8.75,7.8125 L7.1875,6.25 Z M5.3125,5.5625 C6.18749999,5.3125 6.875,4.4375 6.875,3.43749999 L6.875,2.1875 C6.875,1.18749999 6.18750001,0.375 5.3125,0.0624999903 C5.5,-1.46482958e-08 5.75,-1.46482958e-08 5.9375,1.42108547e-13 C7.12500001,1.40026879e-13 8.125,0.999999991 8.125,2.1875 L8.125,3.43749999 C8.125,4.625 7.12499999,5.62499999 5.9375,5.62500001 C5.6875,5.62500001 5.5,5.5625 5.3125,5.5625 Z M4.0625,1.2490009e-15 C5.25000001,0 6.25,0.999999991 6.25,2.1875 L6.25,3.43749999 C6.25,4.625 5.24999999,5.62499999 4.0625,5.62500001 C2.87500001,5.62500002 1.875,4.625 1.875,3.43749999 L1.875,2.1875 C1.875,0.999999991 2.87499999,0 4.0625,0 Z M4.0625,1.25 C3.5625,1.25 3.125,1.6875 3.125,2.1875 L3.125,3.43749999 C3.125,3.93749999 3.5625,4.37499999 4.0625,4.37499999 C4.56249999,4.37499999 5,3.93749999 5,3.43749999 L5,2.1875 C5,1.6875 4.56249999,1.25 4.0625,1.25 Z" id="Shape"></path>
                            </g>
                        </g>
                    </g>
                </g>
            </g>
        </g>
    </g>
</svg>