<?xml version="1.0" encoding="UTF-8"?>
<svg width="26px" height="26px" viewBox="0 0 26 26" version="1.1" xmlns="http://www.w3.org/2000/svg" xmlns:xlink="http://www.w3.org/1999/xlink">
    <!-- Generator: Sketch 52.2 (67145) - http://www.bohemiancoding.com/sketch -->
    <title>Shape</title>
    <desc>Created with Sketch.</desc>
    <g id="main" stroke="none" stroke-width="1" fill="none" fill-rule="evenodd">
        <g id="我的" transform="translate(-172.000000, -322.000000)" fill="#444444" fill-rule="nonzero">
            <g id="about" transform="translate(157.000000, 322.000000)">
                <g id="Group" transform="translate(15.000000, 0.000000)">
                    <path d="M11.3781676,16.2436647 L11.3781676,13 L9.7563353,13 L9.7563353,9.7563353 L14.6218324,9.7563353 L14.6218324,16.2436647 L16.2436647,16.2436647 L16.2436647,19.4873294 L9.7563353,19.4873294 L9.7563353,16.2436647 L11.3781676,16.2436647 Z M13,25.9746589 C5.86393763,25.9746589 0.0253411433,20.1360624 0.0253411433,13 C0.0253411433,5.86393763 5.86393763,0.0253411433 13,0.0253411433 C20.1360624,0.0253411433 25.9746589,5.86393763 25.9746589,13 C25.9746589,20.1360624 20.1360624,25.9746589 13,25.9746589 Z M13,22.7309942 C18.3520468,22.7309942 22.7309942,18.3520468 22.7309942,13 C22.7309942,7.64795322 18.3520468,3.26900585 13,3.26900585 C7.64795322,3.26900585 3.26900585,7.64795322 3.26900585,13 C3.26900585,18.3520468 7.64795322,22.7309942 13,22.7309942 Z M14.6218324,4.89083822 L14.6218324,8.13450292 L11.3781676,8.13450292 L11.3781676,4.89083822 L14.6218324,4.89083822 Z" id="Shape"></path>
                </g>
            </g>
        </g>
    </g>
</svg>