<?xml version="1.0" encoding="UTF-8"?>
<svg width="25px" height="25px" viewBox="0 0 25 25" version="1.1" xmlns="http://www.w3.org/2000/svg" xmlns:xlink="http://www.w3.org/1999/xlink">
    <!-- Generator: Sketch 52.2 (67145) - http://www.bohemiancoding.com/sketch -->
    <title>应用APP</title>
    <desc>Created with Sketch.</desc>
    <g id="main" stroke="none" stroke-width="1" fill="none" fill-rule="evenodd">
        <g id="我的" transform="translate(-57.000000, -452.000000)" fill="#444444" fill-rule="nonzero">
            <g id="应用APP" transform="translate(57.000000, 452.000000)">
                <path d="M0.0139353261,14.2837235 L10.7162765,14.2837235 L10.7162765,24.9860647 L0.0139353261,24.9860647 L0.0139353261,14.2837235 Z M3.5813824,17.8511706 L3.5813824,21.4186176 L7.14882943,21.4186176 L7.14882943,17.8511706 L3.5813824,17.8511706 Z M0.0139353261,0.0139353261 L10.7162765,0.0139353261 L10.7162765,10.7162765 L0.0139353261,10.7162765 L0.0139353261,0.0139353261 Z M3.5813824,3.5813824 L3.5813824,7.14882943 L7.14882943,7.14882943 L7.14882943,3.5813824 L3.5813824,3.5813824 Z M14.2837235,0.0139353261 L24.9860647,0.0139353261 L24.9860647,10.7162765 L14.2837235,10.7162765 L14.2837235,0.0139353261 Z M17.8511706,3.5813824 L17.8511706,7.14882943 L21.4186176,7.14882943 L21.4186176,3.5813824 L17.8511706,3.5813824 Z M14.2837235,14.2837235 L24.9860647,14.2837235 L24.9860647,24.9860647 L14.2837235,24.9860647 L14.2837235,14.2837235 Z M17.8511706,17.8511706 L17.8511706,21.4186176 L21.4186176,21.4186176 L21.4186176,17.8511706 L17.8511706,17.8511706 Z" id="Shape"></path>
            </g>
        </g>
    </g>
</svg>