<?xml version="1.0" encoding="UTF-8"?>
<svg width="26px" height="26px" viewBox="0 0 26 26" version="1.1" xmlns="http://www.w3.org/2000/svg" xmlns:xlink="http://www.w3.org/1999/xlink">
    <!-- Generator: Sketch 52.2 (67145) - http://www.bohemiancoding.com/sketch -->
    <title>柱状图</title>
    <desc>Created with Sketch.</desc>
    <g id="main" stroke="none" stroke-width="1" fill="none" fill-rule="evenodd">
        <g id="我的" transform="translate(-280.000000, -373.000000)" fill="#444444" fill-rule="nonzero">
            <g id="柱状图" transform="translate(280.000000, 373.000000)">
                <path d="M3.474779,22.5117005 L25.9729589,22.5117005 L25.9729589,25.9729589 L0.0135205273,25.9729589 L0.0135205273,0.0135205273 L3.474779,0.0135205273 L3.474779,22.5117005 Z M5.2054082,3.474779 L8.66666668,3.474779 L8.66666668,20.7810712 L5.2054082,20.7810712 L5.2054082,3.474779 Z M10.3972959,6.93603744 L13.8585544,6.93603744 L13.8585544,20.7810712 L10.3972959,20.7810712 L10.3972959,6.93603744 Z M15.5891836,10.3972959 L19.050442,10.3972959 L19.050442,20.7810712 L15.5891836,20.7810712 L15.5891836,10.3972959 Z M20.7810712,13.8585544 L24.2423297,13.8585544 L24.2423297,20.7810712 L20.7810712,20.7810712 L20.7810712,13.8585544 Z" id="Shape"></path>
            </g>
        </g>
    </g>
</svg>