<?xml version="1.0" encoding="UTF-8"?>
<svg width="26px" height="32px" viewBox="0 0 26 32" version="1.1" xmlns="http://www.w3.org/2000/svg" xmlns:xlink="http://www.w3.org/1999/xlink">
    <!-- Generator: Sketch 52.2 (67145) - http://www.bohemiancoding.com/sketch -->
    <title>地图_定位</title>
    <desc>Created with Sketch.</desc>
    <g id="main" stroke="none" stroke-width="1" fill="none" fill-rule="evenodd">
        <g id="我的" transform="translate(-219.000000, -436.000000)" fill="#444444" fill-rule="nonzero">
            <g id="地图_定位" transform="translate(219.000000, 436.000000)">
                <path d="M13,31.5652174 C4.28115943,25.257971 0.0144927391,19.1362319 0.0144927391,13.0144927 C0.0144927391,5.77971013 5.76521739,0.0289854783 13,0.0289855217 C20.2347826,0.0289855652 25.9855073,5.77971017 25.9855073,13.0144927 C25.9855073,19.1362319 21.7188406,25.257971 13,31.5652174 Z M13,26.3710145 C19.1217391,21.7333333 22.2753623,17.2811594 22.2753623,13.0144927 C22.2753623,7.82028983 18.1942029,3.73913043 13,3.73913043 C7.80579713,3.73913043 3.7246377,7.82028987 3.7246377,13.0144927 C3.7246377,17.2811594 6.87826087,21.7333333 13,26.3710145 Z M13,18.5797101 C9.84637683,18.5797101 7.43478261,16.1681159 7.43478261,13.0144927 C7.43478261,9.86086957 9.84637683,7.44927535 13,7.44927535 C16.1536232,7.44927535 18.5652174,9.86086957 18.5652174,13.0144927 C18.5652174,16.1681159 16.1536232,18.5797101 13,18.5797101 Z M13,14.8695652 C14.1130435,14.8695652 14.8550725,14.1275362 14.8550725,13.0144927 C14.8550725,11.9014493 14.1130435,11.1594203 13,11.1594203 C11.8869565,11.1594203 11.1449275,11.9014493 11.1449275,13.0144927 C11.1449275,14.1275362 11.8869565,14.8695652 13,14.8695652 Z" id="Shape"></path>
            </g>
        </g>
    </g>
</svg>