<?xml version="1.0" encoding="UTF-8"?>
<svg width="26px" height="29px" viewBox="0 0 26 29" version="1.1" xmlns="http://www.w3.org/2000/svg" xmlns:xlink="http://www.w3.org/1999/xlink">
    <!-- Generator: Sketch 52.2 (67145) - http://www.bohemiancoding.com/sketch -->
    <title>审核</title>
    <desc>Created with Sketch.</desc>
    <g id="main" stroke="none" stroke-width="1" fill="none" fill-rule="evenodd">
        <g id="我的" transform="translate(-100.000000, -451.000000)" fill="#444444" fill-rule="nonzero">
            <g id="tab" transform="translate(0.000000, 451.000000)">
                <g id="审核" transform="translate(100.000000, 0.000000)">
                    <path d="M16.4335673,23.1254019 L16.4335673,16.9710611 L16.9028347,16.9710611 C17.7475162,16.8778135 18.5921976,16.7845659 19.436879,16.5048232 C19.1553186,16.2250804 18.7799046,15.9453376 18.4983441,15.6655949 C16.4335673,13.9871383 14.9319114,14.0803859 14.9319114,14.0803859 L8.17445989,14.0803859 C8.17445989,14.0803859 6.672804,13.9871383 4.60802714,15.6655949 C2.54325028,17.3440514 -0.178500988,20.7942122 0.00920600997,24.8971061 C0.196913008,29 4.79573414,29 11.5531856,29 C15.0257649,29 17.9352232,29 20,28.4405145 C18.1229301,27.1350483 16.4335673,25.0836013 16.4335673,23.1254019 Z M11.5531856,13.2411576 C15.2134719,13.2411576 18.2167837,10.2572347 18.2167836,6.62057879 C18.2167836,2.98392284 15.2134718,0 11.5531856,0 C7.89289941,0 4.88958762,2.98392284 4.88958762,6.62057879 C4.88958762,10.2572347 7.89289941,13.2411576 11.5531856,13.2411576 Z" id="Shape"></path>
                    <path d="M21.8717949,20.34375 L21.8717949,19.6875 L23.1282051,19.6875 L23.1282051,20.34375 L25.9102564,20.34375 L25.9102564,24.375 L24.6538462,25.3125 L23.1282051,25.3125 L23.1282051,26.53125 L21.8717949,27 L21.8717949,25.3125 L19.0897436,25.3125 L19.0897436,20.34375 L21.8717949,20.34375 Z M21.8717949,21.375 L20.3461538,21.375 L20.3461538,22.40625 L21.8717949,22.40625 L21.8717949,21.375 Z M21.8717949,23.34375 L20.3461538,23.34375 L20.3461538,24.5625 L21.8717949,24.5625 L21.8717949,23.34375 Z M24.6538462,21.375 L23.1282051,21.375 L23.1282051,22.40625 L24.474359,22.40625 L24.1153846,23.34375 L23.1282051,23.34375 L23.1282051,24.5625 L24.6538462,24.5625 L24.6538462,21.375 Z M19,20.25 L19,18.46875 L21.6923077,18.46875 C21.7820513,18.28125 21.8717949,18.1875 22.0512821,18.09375 C22.1410256,18 22.3205128,18 22.5,18 C22.6794872,18 22.8589744,18 22.9487179,18.09375 C23.0384615,18.1875 23.1282051,18.1875 23.2179487,18.28125 L23.3076923,18.46875 L26,18.46875 L26,19.6875 L24.6538462,20.15625 L24.6538462,19.40625 L20.2564103,19.40625 L20.2564103,19.78125 L19,20.25 Z" id="Shape"></path>
                </g>
            </g>
        </g>
    </g>
</svg>