<?xml version="1.0" encoding="UTF-8"?>
<svg width="26px" height="26px" viewBox="0 0 26 26" version="1.1" xmlns="http://www.w3.org/2000/svg" xmlns:xlink="http://www.w3.org/1999/xlink">
    <!-- Generator: Sketch 52.2 (67145) - http://www.bohemiancoding.com/sketch -->
    <title>Shape</title>
    <desc>Created with Sketch.</desc>
    <g id="main" stroke="none" stroke-width="1" fill="none" fill-rule="evenodd">
        <g id="我的" transform="translate(-58.000000, -323.000000)" fill="#4A4A4A" fill-rule="nonzero">
            <g id="setting-copy" transform="translate(57.000000, 323.000000)">
                <g id="item">
                    <g id="全局设置" transform="translate(1.000000, 0.000000)">
                        <path d="M18.6875,18.85 L20.6375,19.3375 L22.2625,16.575 L20.9625,15.1125 C21.125,14.3 21.125,13.65 21.125,13 C21.125,12.35 21.125,11.7 20.9625,11.05 L22.2625,9.5875 L20.6375,6.82500001 L18.6875,7.31250001 C17.7125,6.50000002 16.575,5.68749999 15.275,5.36250001 L14.625,3.24999999 L11.375,3.24999999 L10.725,5.19999999 C9.42500002,5.52499998 8.28750001,6.17499999 7.31250001,7.14999999 L5.36250001,6.66249999 L3.73749999,9.42499998 L5.03749998,10.8875 C4.87499997,11.7 4.87499997,12.35 4.875,13 C4.87500004,13.65 4.875,14.3 5.03749998,14.95 L3.73749999,16.4125 L5.36250001,19.175 L7.31250001,18.6875 C8.28750001,19.5 9.42500002,20.3125 10.725,20.6375 L11.375,22.75 L14.625,22.75 L15.275,20.8 C16.575,20.475 17.7125,19.825 18.6875,18.85 Z M20.15,21.9375 C19.3375,22.5875 18.2,23.2375 17.225,23.5625 L16.25,26 L9.75000001,26 L8.77500001,23.5625 C7.63749999,23.075 6.66249999,22.5875 5.85000001,21.9375 L3.24999999,22.425 L0,16.7375 L1.62499998,14.7875 L1.62499998,13 C1.62499998,12.35 1.62499998,11.8625 1.78749999,11.375 L0.162499975,9.42499998 L3.4125,3.73749999 L6.01249998,4.22499999 C6.82499997,3.57499998 7.96249998,2.925 8.93749998,2.59999998 L9.75000001,0 L16.25,0 L17.225,2.4375 C18.3625,2.925 19.3375,3.4125 20.15,4.06249998 L22.75,3.57499998 L26,9.26250001 L24.375,11.2125 C24.5375,11.7 24.5375,12.35 24.5375,12.8375 C24.5375,13.3249999 24.5375,13.975 24.375,14.4625 L26,16.4125 L22.75,22.1 L20.15,21.9375 Z M13,14.625 C13.975,14.625 14.625,13.975 14.625,13 C14.625,12.025 13.975,11.375 13,11.375 C12.025,11.375 11.375,12.025 11.375,13 C11.375,13.975 12.025,14.625 13,14.625 Z M13,17.875 C10.2375,17.875 8.125,15.7625 8.125,13 C8.125,10.2375 10.2375,8.125 13,8.125 C15.7625,8.125 17.875,10.2375 17.875,13 C17.875,15.7625 15.7625,17.875 13,17.875 Z" id="Shape"></path>
                    </g>
                </g>
            </g>
        </g>
    </g>
</svg>