<?xml version="1.0" encoding="UTF-8"?>
<svg width="26px" height="26px" viewBox="0 0 26 26" version="1.1" xmlns="http://www.w3.org/2000/svg" xmlns:xlink="http://www.w3.org/1999/xlink">
    <!-- Generator: Sketch 52.2 (67145) - http://www.bohemiancoding.com/sketch -->
    <title>图文</title>
    <desc>Created with Sketch.</desc>
    <g id="main" stroke="none" stroke-width="1" fill="none" fill-rule="evenodd">
        <g id="我的" transform="translate(-279.000000, -243.000000)" fill="#444444" fill-rule="nonzero">
            <g id="template" transform="translate(264.000000, 243.000000)">
                <g id="item">
                    <g id="图文" transform="translate(15.000000, 0.000000)">
                        <path d="M0.0144927391,0.0144927391 L25.9855073,0.0144927391 L25.9855073,25.9855073 L0.0144927391,25.9855073 L0.0144927391,0.0144927391 Z M3.7246377,3.7246377 L3.7246377,22.2753623 L22.2753623,22.2753623 L22.2753623,3.7246377 L3.7246377,3.7246377 Z M11.1449275,5.57971013 L20.4202899,5.57971013 L20.4202899,9.28985509 L11.1449275,9.28985509 L11.1449275,5.57971013 Z M5.57971013,11.1449275 L20.4202899,11.1449275 L20.4202899,14.8550725 L5.57971013,14.8550725 L5.57971013,11.1449275 Z M5.57971013,16.7101449 L20.4202899,16.7101449 L20.4202899,20.4202899 L5.57971013,20.4202899 L5.57971013,16.7101449 Z M7.43478261,9.28985509 C6.32173913,9.28985509 5.57971013,8.54782609 5.57971013,7.43478261 C5.57971013,6.32173913 6.32173913,5.57971013 7.43478261,5.57971013 C8.54782609,5.57971013 9.28985509,6.32173913 9.28985509,7.43478261 C9.28985509,8.54782609 8.54782609,9.28985509 7.43478261,9.28985509 Z" id="Shape"></path>
                    </g>
                </g>
            </g>
        </g>
    </g>
</svg>